<!DOCTYPE svg PUBLIC "-//W3C//DTD SVG 1.1//EN" "http://www.w3.org/Graphics/SVG/1.1/DTD/svg11.dtd">
<!-- Uploaded to: SVG Repo, www.svgrepo.com, Transformed by: SVG Repo Mixer Tools -->
<svg fill="#ffffff" width="800px" height="800px" viewBox="0 0 32 32" xmlns="http://www.w3.org/2000/svg" stroke="#ffffff">
<g id="SVGRepo_bgCarrier" stroke-width="0"/>
<g id="SVGRepo_tracerCarrier" stroke-linecap="round" stroke-linejoin="round"/>
<g id="SVGRepo_iconCarrier"> <title/> <g data-name="01" id="_01"> <path d="M27,5H6A1,1,0,0,0,5,6V21a1,1,0,0,0,1,1H9v3a1,1,0,0,0,1.48.88L17.58,22H27a1,1,0,0,0,1-1V6A1,1,0,0,0,27,5ZM26,20H17.33a1,1,0,0,0-.48.12L11,23.31V21a1,1,0,0,0-1-1H7V7H26ZM9,11a1,1,0,0,1,1-1H23a1,1,0,0,1,0,2H10A1,1,0,0,1,9,11Zm0,4a1,1,0,0,1,1-1h6a1,1,0,0,1,0,2H10A1,1,0,0,1,9,15Z"/> </g> </g>
</svg>