<svg width="36" height="37" viewBox="0 0 36 37" fill="none" xmlns="http://www.w3.org/2000/svg">
<g clip-path="url(#clip0_1_368)">
<path d="M33.2609 16.9348C33.2609 16.1073 33.0375 15.2993 32.6205 14.587C33.6848 12.7695 33.4075 10.4408 31.8856 8.91887C31.5799 8.61315 31.239 8.35616 30.8728 8.1488C30.8996 7.9482 30.9131 7.74627 30.9131 7.54355C30.9131 4.95437 28.8066 2.84787 26.2174 2.84787C26.0098 2.84787 25.803 2.86194 25.5976 2.88999C24.78 1.44134 23.2332 0.5 21.5218 0.5C20.1204 0.5 18.8612 1.11798 18.0001 2.09469C17.139 1.11798 15.8798 0.5 14.4784 0.5C12.767 0.5 11.2201 1.44134 10.4026 2.88992C7.61332 2.50911 5.08706 4.69562 5.08706 7.54348C5.08706 7.7462 5.1007 7.94813 5.12742 8.14873C4.76123 8.35602 4.42029 8.61315 4.11457 8.9188C2.59301 10.4403 2.31499 12.7689 3.37973 14.5869C2.96264 15.2992 2.73926 16.1072 2.73926 16.9347C2.73926 18.646 3.6806 20.1929 5.12918 21.0104C5.12869 21.014 5.12841 21.0176 5.12791 21.0211C4.75969 23.849 6.96877 26.326 9.78274 26.326C9.99037 26.326 10.1972 26.3119 10.4026 26.2839C10.8162 27.0168 11.4167 27.6195 12.1305 28.0365V30.6304C12.1305 33.8669 14.7636 36.5 18.0001 36.5C21.2366 36.5 23.8696 33.8669 23.8696 30.6305V28.0366C24.5835 27.6196 25.1839 27.0168 25.5976 26.284C25.803 26.312 26.0098 26.3261 26.2174 26.3261C29.0664 26.3261 31.2508 23.8002 30.871 21.0106C32.3197 20.193 33.2609 18.6461 33.2609 16.9348ZM12.2254 24.588C12.0869 24.076 11.622 23.7206 11.0922 23.7206C10.6316 23.7206 10.482 23.9783 9.78274 23.9783C6.68119 23.9783 6.67795 19.2826 9.78274 19.2826C10.431 19.2826 10.9567 18.757 10.9567 18.1086C10.9567 17.4604 10.4311 16.9347 9.78274 16.9347C8.25415 16.9347 6.89423 17.6693 6.03621 18.8035C5.45374 18.3714 5.08706 17.6853 5.08706 16.9347C5.08706 16.2053 5.41999 15.6826 5.69927 15.3726C6.1016 14.9261 6.1016 14.2478 5.69927 13.8012C4.30132 12.2491 5.46949 9.89122 7.43487 9.89122C8.06198 9.89122 8.65163 10.1355 9.09502 10.5789C9.55338 11.0373 10.2967 11.0373 10.7552 10.5789C11.2136 10.1204 11.2136 9.37716 10.7552 8.91873C9.86831 8.0318 8.6891 7.54334 7.43487 7.54334C7.43487 6.24875 8.48808 5.19554 9.78267 5.19554C10.0753 5.19554 10.3687 5.25376 10.6548 5.36865C11.3065 5.63028 12.0418 5.26423 12.2254 4.58586C12.5023 3.56246 13.4287 2.84766 14.4784 2.84766C15.7729 2.84766 16.8262 3.90087 16.8262 5.19547V12.3571C14.1503 12.9024 12.1305 15.274 12.1305 18.1086C12.1305 18.7569 12.6561 19.2825 13.3044 19.2825C13.9528 19.2825 14.4784 18.7569 14.4784 18.1086C14.4784 16.5781 15.4598 15.2734 16.8262 14.7888V23.9782C16.8262 25.2728 15.7729 26.326 14.4784 26.326C13.4287 26.3261 12.5023 25.6113 12.2254 24.588ZM18.0001 34.1522C16.4697 34.1522 15.1649 33.1707 14.6803 31.8044H21.3198C20.8353 33.1707 19.5305 34.1522 18.0001 34.1522ZM21.5218 29.4565H14.4784V28.6739C15.8798 28.6739 17.139 28.056 18.0001 27.0792C18.8612 28.056 20.1204 28.6739 21.5218 28.6739V29.4565ZM30.3009 15.3727C30.5802 15.6827 30.9131 16.2054 30.9131 16.9348C30.9131 17.6854 30.5464 18.3715 29.964 18.8035C29.106 17.6693 27.746 16.9348 26.2174 16.9348C25.5692 16.9348 25.0435 17.4604 25.0435 18.1087C25.0435 18.757 25.5691 19.2826 26.2174 19.2826C29.3075 19.2826 29.3059 23.9783 26.2174 23.9783C25.9248 23.9783 25.6315 23.9201 25.3454 23.8052C24.6936 23.5437 23.9584 23.9096 23.7747 24.588C23.4978 25.6114 22.5714 26.3262 21.5218 26.3262C20.2272 26.3262 19.174 25.273 19.174 23.9784V14.7888C20.5403 15.2734 21.5218 16.5783 21.5218 18.1086C21.5218 18.7569 22.0474 19.2826 22.6957 19.2826C23.3441 19.2826 23.8696 18.757 23.8696 18.1086C23.8696 15.2741 21.8499 12.9026 19.174 12.3571V5.19568C19.174 3.90109 20.2272 2.84787 21.5218 2.84787C22.5714 2.84787 23.4978 3.5626 23.7747 4.586C23.9582 5.26388 24.6931 5.6307 25.3454 5.36879C25.6314 5.25397 25.9248 5.19575 26.2174 5.19575C27.512 5.19575 28.5653 6.24896 28.5653 7.54355C27.311 7.54355 26.1318 8.03195 25.245 8.91894C24.7865 9.37737 24.7865 10.1206 25.245 10.5791C25.7033 11.0375 26.4467 11.0375 26.9051 10.5791C27.3486 10.1357 27.9381 9.89143 28.5653 9.89143C30.5398 9.89143 31.6948 12.2539 30.3008 13.8014C29.8986 14.2479 29.8986 14.9261 30.3009 15.3727Z" fill="white" stroke="white" stroke-width="0.2"/>
</g>
<defs>
<clipPath id="clip0_1_368">
<rect width="36" height="36" fill="white" transform="translate(0 0.5)"/>
</clipPath>
</defs>
</svg>
