<svg width="122" height="47" viewBox="0 0 122 47" fill="none" xmlns="http://www.w3.org/2000/svg">
<path d="M48.0102 15.3612C48.0102 11.1079 45.4092 7.16828 40.685 4.26552C36.2049 1.51351 30.2809 0 24.0051 0C17.7293 0 11.8053 1.51554 7.32518 4.26552C2.60103 7.16624 0 11.1079 0 15.3612C0 19.3476 2.28581 23.0591 6.46088 25.8966C7.0547 28.8035 9.22867 30.8853 11.0142 32.1462C10.9735 32.3886 10.9471 32.6372 10.939 32.8918C10.8637 34.9818 12.0514 37.1492 14.1155 38.6912C14.7419 39.1678 15.4211 39.5875 16.1471 39.9541C15.9946 40.3289 15.897 40.7282 15.8787 41.158C15.8034 42.5249 16.5437 43.9487 17.8594 44.9672C19.8605 46.5419 22.303 46.9167 24.0031 46.9554C24.056 46.9554 24.1088 46.9554 24.1617 46.9554C25.9411 46.9554 27.625 46.5419 29.0404 45.7556C30.6144 44.898 32.2637 43.2398 32.1763 41.1601C32.1539 40.7221 32.0624 40.3188 31.918 39.946C31.975 39.9175 32.0339 39.8889 32.0909 39.8584C34.5516 38.5669 37.1506 36.0573 37.0713 32.8938C37.0611 32.6188 37.0326 32.3581 36.9919 32.1035C37.1892 31.9629 37.3844 31.8203 37.5695 31.6757C39.654 30.0379 40.9677 28.0905 41.4416 25.97C45.6858 23.1222 48.0123 19.3823 48.0123 15.3612H48.0102ZM7.12588 26.3305C7.19299 26.3713 7.25807 26.4141 7.32518 26.4548C7.87833 26.795 8.45588 27.1148 9.05174 27.4183C9.76758 28.5326 10.7641 29.4268 11.7667 30.1235C11.5002 30.5757 11.2867 31.0585 11.1423 31.5677C9.59066 30.4392 7.80308 28.6914 7.12588 26.3305ZM6.84727 24.2059C6.85337 23.882 6.88388 23.5561 6.93879 23.2322C7.27841 23.495 7.63429 23.7517 8.01052 24.0002C8.01052 24.0715 8.00645 24.1407 8.01052 24.212C8.04102 24.9352 8.19354 25.6033 8.43555 26.2185C8.19558 26.082 7.95764 25.9455 7.72581 25.8029C7.4472 25.6318 7.17469 25.4567 6.91235 25.2774C6.86761 24.9311 6.84321 24.5746 6.85134 24.2059H6.84727ZM9.06191 19.0849C11.8155 16.2025 15.9397 14.4669 21.3166 13.9312C22.1037 13.8701 22.9578 13.8334 23.8567 13.8334C27.8019 13.8334 32.6461 14.5627 36.8252 17.3289C38.8527 18.6876 40.262 20.523 40.8233 22.4541C40.5508 22.672 40.2641 22.8859 39.9651 23.0957C39.6255 21.13 38.383 19.315 36.3147 17.7954C34.393 16.3838 31.8204 15.2736 29.256 14.7501C26.7282 14.2062 24.0722 14.0819 21.3634 14.3773C17.5198 14.8051 14.148 16.0314 11.6121 17.9217C9.6354 19.3884 8.39487 21.24 8.08576 23.1283C7.75224 22.8961 7.43093 22.6578 7.12792 22.4133C7.47567 21.2319 8.13254 20.0891 9.06191 19.0869V19.0849ZM6.67441 22.0263C4.413 20.0443 3.19282 17.7404 3.19282 15.3591C3.19282 12.2608 5.2529 9.29085 8.99276 6.99309C12.9767 4.54663 18.3089 3.19812 24.0031 3.19812C29.6973 3.19812 35.0274 4.54663 39.0134 6.99309C42.7533 9.29085 44.8133 12.2608 44.8133 15.3591C44.8133 17.7588 43.5728 20.0789 41.2789 22.0732C40.6403 20.1034 39.1842 18.2497 37.1282 16.8726C31.8651 13.3893 25.6015 13.0532 21.2699 13.3873C15.7546 13.9373 11.5145 15.7278 8.66535 18.71C7.73801 19.7123 7.06081 20.8469 6.67645 22.0263H6.67441ZM41.0958 24.2018C41.0958 24.5868 41.0613 24.9657 41.0023 25.3405C40.7684 25.4974 40.5305 25.6522 40.2844 25.8029C40.0831 25.9272 39.8757 26.0454 39.6682 26.1635C39.9123 25.5239 40.0485 24.868 40.0648 24.2059V24.1998C40.0648 24.1204 40.0587 24.0409 40.0566 23.9635C40.3902 23.7394 40.7074 23.5113 41.0125 23.277C41.0633 23.5846 41.0918 23.8943 41.0958 24.2039V24.2018ZM35.4464 32.4497C35.3996 31.8936 35.2532 31.3803 35.0356 30.9077C35.3406 30.7427 35.6355 30.5675 35.9263 30.3862C36.1683 30.8161 36.3595 31.2866 36.4815 31.7959C36.152 32.024 35.8043 32.242 35.4464 32.4518V32.4497ZM30.1772 41.156C29.9596 43.0728 27.1979 43.7797 26.0204 43.9935C24.4891 44.2624 22.2135 44.3948 20.068 43.5047C18.6668 42.8997 17.8981 42.1073 17.7842 41.158C17.774 40.9889 17.7842 40.826 17.8127 40.6691C19.0715 41.1213 20.4462 41.4371 21.9308 41.6082C22.6893 41.6917 23.4398 41.7345 24.178 41.7345C26.2889 41.7345 28.3042 41.3923 30.1467 40.7221C30.1711 40.8626 30.1833 41.0073 30.1772 41.158V41.156ZM21.9796 41.1723C20.5174 41.0032 19.1671 40.6915 17.9327 40.2454C18.1869 39.6038 18.7156 39.0945 19.224 38.7278C20.6699 39.1027 22.2196 39.2941 23.8221 39.2941C25.0748 39.2941 26.356 39.178 27.6433 38.9438C27.9341 38.8908 28.3002 38.8134 28.711 38.7095C29.26 39.119 29.7807 39.6527 30.0267 40.2963C27.5925 41.1865 24.8491 41.4921 21.9776 41.1723H21.9796ZM17.6276 40.1293C17.286 39.9969 16.9545 39.8523 16.6311 39.6995C16.9301 39.1577 17.3612 38.6891 17.8513 38.3021C18.1706 38.4182 18.498 38.5201 18.8295 38.6158C18.3455 38.9988 17.8737 39.504 17.6256 40.1293H17.6276ZM19.7263 38.3999C19.765 38.3775 19.8036 38.3551 19.8402 38.3327C21.0014 37.689 22.4412 37.3345 24.0051 37.304C24.0437 37.304 24.0824 37.304 24.121 37.304C25.6137 37.304 27.0068 37.6604 28.1558 38.3367C28.1781 38.351 28.2005 38.3653 28.2229 38.3795C28.0032 38.4284 27.7836 38.4753 27.564 38.514C24.8389 39.011 22.1423 38.9621 19.7243 38.3999H19.7263ZM29.1096 38.6036C29.4471 38.5099 29.8091 38.3999 30.1813 38.2675C30.708 38.6647 31.1452 39.1393 31.4401 39.6975C31.0802 39.8726 30.71 40.0356 30.3338 40.1823C30.1203 39.6241 29.7095 39.0945 29.1075 38.6056L29.1096 38.6036ZM28.6621 38.2715C28.5544 38.1982 28.4425 38.1249 28.3266 38.0536C27.0942 37.3284 25.5995 36.9556 24.0031 36.976C22.3863 37.0066 20.8916 37.3773 19.6857 38.0454C19.5616 38.1147 19.4253 38.1962 19.285 38.2899C18.9434 38.2003 18.6099 38.1004 18.2824 37.9904C18.6383 37.7562 19.0105 37.5606 19.3745 37.4079C20.7147 36.8334 22.2033 36.5442 23.818 36.5442C24.6315 36.5442 25.4754 36.6175 26.3499 36.7642C27.5213 36.9536 28.7415 37.3427 29.7339 37.9599C29.38 38.076 29.0241 38.1799 28.6642 38.2715H28.6621ZM26.4007 36.4403C23.7245 35.9921 21.3166 36.2162 19.2444 37.1064C18.7949 37.2958 18.3333 37.5484 17.9022 37.856C17.6174 37.7501 17.3348 37.6401 17.0623 37.5179C15.7017 36.8986 13.4607 35.5644 13.0438 33.3705C13.0539 33.3766 13.0661 33.3827 13.0763 33.3868C16.3423 35.0245 20.1554 35.8699 24.0376 35.8699C25.8923 35.8699 27.7633 35.6764 29.5956 35.2853C31.4686 34.884 33.3253 34.2057 34.9725 33.3399C34.5861 35.4849 32.5159 36.9597 30.1264 37.8254C29.0546 37.1003 27.7023 36.6501 26.4048 36.4403H26.4007ZM11.5206 31.8346C11.6507 31.3151 11.8582 30.8242 12.1266 30.3659C12.4113 30.5512 12.694 30.7203 12.9685 30.8731C12.7428 31.364 12.5923 31.8998 12.5537 32.4844C12.2446 32.3072 11.8927 32.0892 11.5206 31.8346ZM16.4969 27.4753C15.9417 27.7789 15.2788 28.1964 14.6524 28.7342C14.3453 28.6507 14.0423 28.5611 13.7413 28.4694C14.2965 27.9907 14.9066 27.5792 15.5269 27.2411C15.8461 27.3246 16.1715 27.402 16.4969 27.4753ZM24.0031 28.284C26.3702 28.284 28.6764 28.0518 30.8585 27.6118C30.9642 27.6648 31.074 27.7137 31.1778 27.7687C31.6638 28.0355 32.2597 28.4063 32.8352 28.8768C30.0694 29.5837 27.082 29.9564 24.0051 29.9564C20.9282 29.9564 17.9347 29.5837 15.1689 28.8748C15.7485 28.4103 16.3464 28.0477 16.8365 27.789C16.9504 27.73 17.0704 27.677 17.1883 27.62C19.3582 28.0559 21.6502 28.284 24.0051 28.284H24.0031ZM18.4594 27.074C20.127 26.467 22.0121 26.137 24.0031 26.1105C24.0417 26.1105 24.0804 26.1105 24.117 26.1105C26.0774 26.1105 27.9463 26.4365 29.6119 27.0639C27.808 27.3633 25.9249 27.5202 24.001 27.5202C22.0772 27.5202 20.2408 27.3674 18.4573 27.0761L18.4594 27.074ZM14.4877 29.4818C17.4527 30.2905 20.6781 30.7203 24.0031 30.7203C27.3281 30.7203 30.5412 30.2925 33.5022 29.4859C33.8357 29.8261 34.1428 30.207 34.3909 30.6246C31.5438 32.079 28.0582 32.8409 24.001 32.8877C20.3812 32.902 17.1009 32.242 14.2701 30.9301C14.0626 30.8324 13.8389 30.7224 13.6051 30.6001C13.8532 30.1907 14.1562 29.8179 14.4877 29.4838V29.4818ZM33.9801 29.3555C34.3014 29.2638 34.6167 29.164 34.9319 29.0622C35.1881 29.327 35.424 29.6122 35.6355 29.9198C35.3569 30.0929 35.0742 30.262 34.7814 30.4209C34.5516 30.0338 34.2791 29.6794 33.9801 29.3535V29.3555ZM33.3456 28.7363C32.7315 28.1985 32.0827 27.7768 31.5377 27.4672C31.8468 27.3979 32.1539 27.3246 32.4569 27.2472C33.0711 27.5731 33.7056 27.9744 34.2892 28.4613C33.9781 28.557 33.6649 28.6487 33.3456 28.7363ZM30.4192 26.9192C28.5117 26.0881 26.3194 25.6583 24.001 25.6726C21.6868 25.7031 19.5148 26.1391 17.6418 26.9294C17.3002 26.8642 16.9626 26.795 16.6271 26.7196C18.8376 25.7887 21.28 25.3141 23.8099 25.3141C25.7764 25.3141 27.7938 25.5972 29.7949 26.1676C30.1589 26.2735 30.7141 26.4548 31.3547 26.7257C31.0456 26.795 30.7324 26.8602 30.4172 26.9192H30.4192ZM29.9189 25.7459C25.1338 24.3852 20.2551 24.6276 16.1776 26.4324C16.0902 26.4711 16.0048 26.5118 15.9173 26.5526C13.3529 25.9089 11.004 24.9576 8.99683 23.7252C8.85651 23.6396 8.72433 23.55 8.5901 23.4624C8.8016 21.6311 9.99128 19.806 11.9415 18.3576C14.3982 16.5243 17.6785 15.3347 21.4265 14.9171C22.3579 14.8153 23.2832 14.7643 24.1983 14.7643C25.8862 14.7643 27.5436 14.9375 29.1482 15.2817C32.5606 15.9804 38.8609 18.5552 39.471 23.4319C39.3205 23.5296 39.174 23.6274 39.0175 23.7231C37.0021 24.9617 34.639 25.917 32.0604 26.5607C31.1798 26.1472 30.3948 25.8865 29.921 25.7479L29.9189 25.7459ZM8.59621 24.375C10.457 25.5178 12.6025 26.4242 14.933 27.0781C14.3473 27.4305 13.7759 27.844 13.2573 28.3166C11.8358 27.8522 10.4875 27.294 9.23273 26.6463C8.86871 25.9618 8.62671 25.198 8.56773 24.3567C8.5779 24.3628 8.58807 24.3689 8.59824 24.377L8.59621 24.375ZM12.6554 28.9196C12.4418 29.1559 12.2446 29.4044 12.0615 29.6631C11.3701 29.1803 10.6827 28.5998 10.1031 27.9174C10.9227 28.2881 11.7748 28.6201 12.6554 28.9196ZM13.1089 29.0703C13.4078 29.1661 13.7067 29.2598 14.0118 29.3474C13.7189 29.6631 13.4505 30.0094 13.2248 30.3862C12.9645 30.2396 12.694 30.0787 12.4235 29.9014C12.631 29.6081 12.8608 29.3311 13.1089 29.0683V29.0703ZM29.4797 34.7455C23.9278 35.9331 18.0384 35.2588 13.3183 32.8938C13.2187 32.8449 13.1068 32.7859 12.9807 32.7186C12.9889 32.1238 13.1251 31.5759 13.3529 31.0788C13.5949 31.2051 13.8267 31.3192 14.0423 31.4211C16.9179 32.7553 20.2307 33.4316 23.8933 33.4316C23.9319 33.4316 23.9705 33.4316 24.0092 33.4316C28.1578 33.3827 31.7248 32.6005 34.6512 31.1053C34.8709 31.5881 35.0091 32.1157 35.0274 32.686C33.3497 33.6088 31.4259 34.3299 29.4817 34.7475L29.4797 34.7455ZM35.3894 28.9053C36.3066 28.5916 37.1933 28.2433 38.0433 27.8542C37.5004 28.5163 36.813 29.1335 36.0056 29.6794C35.8165 29.4044 35.6111 29.1477 35.3894 28.9053ZM34.7793 28.3064C34.2364 27.8257 33.6466 27.4183 33.0609 27.0802C35.3976 26.4263 37.5492 25.5178 39.414 24.373C39.4486 24.3526 39.4791 24.3302 39.5137 24.3098C39.4771 25.0839 39.2615 25.8539 38.8812 26.5913C37.6041 27.2574 36.2334 27.8339 34.7814 28.3085L34.7793 28.3064ZM14.3778 38.3367C12.4256 36.8782 11.303 34.8473 11.3742 32.8999C11.3782 32.7349 11.3925 32.574 11.4128 32.4151C11.8399 32.6983 12.2344 32.9305 12.5638 33.1138C12.8506 35.7049 15.3743 37.2286 16.8833 37.913C17.0846 38.0027 17.29 38.0841 17.4975 38.1636C17.0338 38.5547 16.6291 39.0191 16.3383 39.5488C15.6387 39.1943 14.9818 38.7951 14.3778 38.3367ZM31.8509 41.1702C31.9302 43.0993 30.3704 44.6535 28.8838 45.4643C27.4745 46.2465 25.7886 46.6478 24.0092 46.6213C22.3619 46.5846 19.9927 46.222 18.0608 44.7024C16.8304 43.7491 16.137 42.4291 16.2061 41.1682C16.2224 40.7852 16.3078 40.4267 16.442 40.0926C16.7857 40.2556 17.1395 40.4084 17.5036 40.5469C17.4629 40.7486 17.4446 40.9584 17.4588 41.1804C17.589 42.2641 18.4228 43.1441 19.9419 43.798C21.2373 44.3358 22.5755 44.515 23.7773 44.515C24.6355 44.515 25.4246 44.4254 26.0794 44.3093C27.6331 44.0261 30.2769 43.2419 30.5046 41.1784V41.1662C30.5128 40.9726 30.4965 40.7832 30.4579 40.5958C30.8544 40.441 31.2449 40.2739 31.6231 40.0886C31.7492 40.4226 31.8306 40.7812 31.8509 41.1682V41.1702ZM36.6361 32.8999C36.7093 35.8638 34.2323 38.2349 31.8875 39.4673C31.8367 39.4938 31.7858 39.5182 31.735 39.5447C31.4482 39.0008 31.0354 38.5303 30.5412 38.131C31.2245 37.8682 31.9322 37.5382 32.5952 37.1206C34.3279 36.0329 35.2857 34.6721 35.4464 33.0751C35.8429 32.8531 36.2232 32.6188 36.5873 32.3744C36.6096 32.5455 36.6259 32.7207 36.632 32.8999H36.6361ZM37.2319 31.2398C37.1119 31.3335 36.9879 31.4272 36.8638 31.5188C36.7296 31.0238 36.5364 30.5655 36.2964 30.1438C37.4902 29.3392 38.4297 28.3859 39.0724 27.3552C39.6275 27.07 40.1665 26.7705 40.685 26.4528C40.7115 26.4365 40.7359 26.4202 40.7603 26.4059C40.2193 28.1883 39.0276 29.8322 37.2319 31.2418V31.2398ZM41.6042 24.9189C41.6266 24.6805 41.6409 24.4402 41.6429 24.1978V24.1917C41.6368 23.7578 41.5839 23.3239 41.4944 22.892C44.1443 20.7002 45.578 18.0847 45.578 15.3551C45.578 11.9818 43.3878 8.77956 39.414 6.33717C35.3101 3.81738 29.8396 2.43017 24.0051 2.43017C18.1706 2.43017 12.7001 3.81738 8.59621 6.33717C4.62044 8.77752 2.43224 11.9818 2.43224 15.3551C2.43224 18.0643 3.84562 20.6595 6.45885 22.8432C6.3653 23.2893 6.31243 23.7415 6.30226 24.1896C6.29819 24.4157 6.30632 24.6378 6.32056 24.8557C2.72305 22.2219 0.762616 18.8954 0.762616 15.3551C0.762616 11.3768 3.23553 7.66938 7.72377 4.9133C12.0859 2.23461 17.8676 0.75981 24.0051 0.75981C30.1426 0.75981 35.9243 2.23461 40.2864 4.9133C44.7747 7.66938 47.2476 11.3788 47.2476 15.3551C47.2476 18.9239 45.2567 22.2748 41.6042 24.9189Z" fill="url(#paint0_linear_101_795)"/>
<path d="M68.5523 14.6197H67.7333L72.5693 7.06666H74.2983V15.4777H72.5693V9.36766L72.9853 9.48466L69.1243 15.4777H67.1873L63.3263 9.51066L63.7423 9.39366V15.4777H62.0133V7.06666H63.7423L68.5523 14.6197ZM78.0245 11.9677V14.0347H84.5115V15.4777H76.2955V7.06666H84.4985V8.50966H78.0245V10.6027H83.3285V11.9677H78.0245ZM85.5457 7.06666H94.4117V8.50966H85.5457V7.06666ZM89.1207 8.32766H90.8497V15.4777H89.1207V8.32766ZM96.4483 13.6447V12.2017H102.012V13.6447H96.4483ZM94.3553 15.4777L98.3073 7.06666H100.179L104.17 15.4777H102.285L98.8273 7.89866H99.6593L96.2273 15.4777H94.3553Z" fill="white"/>
<path d="M68.5523 26.6197H67.7333L72.5693 19.0667H74.2983V27.4777H72.5693V21.3677L72.9853 21.4847L69.1243 27.4777H67.1873L63.3263 21.5107L63.7423 21.3937V27.4777H62.0133V19.0667H63.7423L68.5523 26.6197ZM76.5425 19.0667H78.2715V27.4777H76.5425V19.0667ZM89.0383 25.7617L88.4923 25.9827V19.0667H90.2213V27.4777H88.4923L81.6933 20.8347L82.2393 20.6137V27.4777H80.5103V19.0667H82.2393L89.0383 25.7617ZM92.4751 19.0667H94.2041V27.4777H92.4751V19.0667ZM104.971 25.7617L104.425 25.9827V19.0667H106.154V27.4777H104.425L97.626 20.8347L98.172 20.6137V27.4777H96.443V19.0667H98.172L104.971 25.7617ZM112.997 27.6467C112.217 27.6467 111.51 27.5557 110.878 27.3737C110.254 27.1917 109.712 26.9187 109.253 26.5547C108.802 26.1907 108.455 25.74 108.213 25.2027C107.97 24.6653 107.849 24.0457 107.849 23.3437C107.849 22.633 107.974 22.0047 108.226 21.4587C108.486 20.904 108.85 20.436 109.318 20.0547C109.794 19.6733 110.358 19.3873 111.008 19.1967C111.666 18.9973 112.394 18.8977 113.192 18.8977C114.136 18.8977 114.951 19.032 115.636 19.3007C116.32 19.5607 116.858 19.929 117.248 20.4057C117.646 20.8823 117.872 21.45 117.924 22.1087H116.26C116.147 21.762 115.961 21.463 115.701 21.2117C115.449 20.9517 115.116 20.7523 114.7 20.6137C114.284 20.4663 113.781 20.3927 113.192 20.3927C112.438 20.3927 111.792 20.514 111.255 20.7567C110.726 20.9993 110.323 21.3417 110.046 21.7837C109.768 22.2257 109.63 22.7457 109.63 23.3437C109.63 23.9243 109.751 24.427 109.994 24.8517C110.236 25.2677 110.609 25.5883 111.112 25.8137C111.623 26.039 112.273 26.1517 113.062 26.1517C113.668 26.1517 114.201 26.0737 114.661 25.9177C115.129 25.753 115.519 25.5363 115.831 25.2677C116.143 24.9903 116.364 24.6827 116.494 24.3447L117.17 24.0977C117.057 25.2157 116.632 26.0867 115.896 26.7107C115.168 27.3347 114.201 27.6467 112.997 27.6467ZM116.728 27.4777C116.728 27.209 116.745 26.9013 116.78 26.5547C116.814 26.1993 116.858 25.844 116.91 25.4887C116.962 25.1247 117.009 24.791 117.053 24.4877H113.205V23.3827H118.223V27.4777H116.728Z" fill="white"/>
<path d="M68.5523 38.6197H67.7333L72.5693 31.0667H74.2983V39.4777H72.5693V33.3677L72.9853 33.4847L69.1243 39.4777H67.1873L63.3263 33.5107L63.7423 33.3937V39.4777H62.0133V31.0667H63.7423L68.5523 38.6197ZM78.0245 35.9677V38.0347H84.5115V39.4777H76.2955V31.0667H84.4985V32.5097H78.0245V34.6027H83.3285V35.9677H78.0245ZM91.0967 31.0667C92.0414 31.0667 92.83 31.1793 93.4627 31.4047C94.0954 31.63 94.598 31.9377 94.9707 32.3277C95.352 32.709 95.6207 33.151 95.7767 33.6537C95.9414 34.1563 96.0237 34.685 96.0237 35.2397C96.0237 35.7943 95.9327 36.3273 95.7507 36.8387C95.5774 37.35 95.2957 37.805 94.9057 38.2037C94.5244 38.5937 94.0174 38.9057 93.3847 39.1397C92.7607 39.365 91.998 39.4777 91.0967 39.4777H86.2867V31.0667H91.0967ZM88.0157 37.9957H91.0577C91.6817 37.9957 92.1974 37.922 92.6047 37.7747C93.0207 37.6187 93.35 37.4107 93.5927 37.1507C93.8354 36.8907 94.0087 36.596 94.1127 36.2667C94.2167 35.9373 94.2687 35.595 94.2687 35.2397C94.2687 34.8843 94.2167 34.5463 94.1127 34.2257C94.0087 33.905 93.8354 33.619 93.5927 33.3677C93.35 33.1163 93.0207 32.917 92.6047 32.7697C92.1974 32.6223 91.6817 32.5487 91.0577 32.5487H88.0157V37.9957ZM97.9595 31.0667H99.6885V39.4777H97.9595V31.0667ZM103.24 37.6447V36.2017H108.804V37.6447H103.24ZM101.147 39.4777L105.099 31.0667H106.971L110.962 39.4777H109.077L105.619 31.8987H106.451L103.019 39.4777H101.147Z" fill="white"/>
<defs>
<linearGradient id="paint0_linear_101_795" x1="24.2552" y1="47.3281" x2="23.8696" y2="-1.60516" gradientUnits="userSpaceOnUse">
<stop offset="0.05" stop-color="#00E6B8"/>
<stop offset="0.11" stop-color="#28EAC3"/>
<stop offset="0.23" stop-color="#74F1D8"/>
<stop offset="0.33" stop-color="#AFF7E8"/>
<stop offset="0.41" stop-color="#DAFBF4"/>
<stop offset="0.48" stop-color="#F5FEFC"/>
<stop offset="0.52" stop-color="white"/>
<stop offset="0.6" stop-color="#CFFCFF"/>
<stop offset="0.71" stop-color="#94F9FF"/>
<stop offset="0.8" stop-color="#69F7FF"/>
<stop offset="0.88" stop-color="#4EF6FF"/>
<stop offset="0.92" stop-color="#45F6FF"/>
</linearGradient>
</defs>
</svg>
