<svg width="19" height="16" viewBox="0 0 19 16" fill="none" xmlns="http://www.w3.org/2000/svg">
<path d="M18.4737 2.2174C18.0093 2.83692 17.4479 3.37733 16.8112 3.81776C16.8112 3.97959 16.8112 4.14142 16.8112 4.31225C16.8163 7.2511 15.6424 10.0691 13.5527 12.1345C11.4629 14.1999 8.63206 15.3399 5.69491 15.2989C3.99685 15.3046 2.32053 14.9169 0.797277 14.1661C0.715137 14.1302 0.662166 14.049 0.662476 13.9593V13.8604C0.662476 13.7313 0.767087 13.6267 0.896127 13.6267C2.56528 13.5716 4.17488 12.9929 5.4972 11.9724C3.98639 11.9419 2.62705 11.0469 2.00146 9.6707C1.96987 9.5956 1.9797 9.5093 2.02743 9.4432C2.07515 9.3771 2.15386 9.3407 2.23511 9.3471C2.69428 9.3932 3.15804 9.3505 3.60106 9.2212C1.93325 8.875 0.680067 7.4904 0.500717 5.7957C0.494347 5.7144 0.530776 5.6357 0.596856 5.5879C0.662926 5.5402 0.749097 5.5303 0.824237 5.562C1.2718 5.7595 1.75495 5.8635 2.2441 5.8676C0.782696 4.90846 0.151466 3.08405 0.707406 1.42622C0.764796 1.26513 0.902667 1.14612 1.07036 1.11294C1.23804 1.07975 1.41082 1.13728 1.52518 1.26439C3.49725 3.36325 6.2069 4.61396 9.08276 4.75279C9.00916 4.45885 8.97296 4.15676 8.97496 3.85372C9.00186 2.26472 9.98506 0.849212 11.4643 0.269872C12.9434 -0.309458 14.6258 0.0620322 15.7239 1.21044C16.4723 1.06785 17.1959 0.816452 17.8716 0.464212C17.9211 0.433312 17.9839 0.433312 18.0334 0.464212C18.0643 0.513732 18.0643 0.576522 18.0334 0.626042C17.7061 1.37552 17.1532 2.00412 16.4518 2.42419C17.066 2.35296 17.6694 2.20807 18.2491 1.99264C18.2979 1.95942 18.362 1.95942 18.4108 1.99264C18.4517 2.01134 18.4823 2.04711 18.4944 2.09042C18.5065 2.13373 18.4989 2.18018 18.4737 2.2174Z" fill="#F2F4F8"/>
</svg>
